<svg viewBox="0 0 128 128" xml:space="preserve" xmlns="http://www.w3.org/2000/svg" fill-rule="evenodd" clip-rule="evenodd" stroke-linejoin="round" stroke-miterlimit="1.414"><path fill="none" d="M.176 0h128v128h-128z"></path><path d="M50.235 108.932c-8.73-.019-17.459-.058-26.188-.115-6.428-.121-11.719-7.448-9.131-13.78 1.491-3.649 5.262-6.193 9.253-6.219h6.007c0-10.127-.03-20.254.001-30.381.121-12.837 8.071-25.221 19.887-30.613l.112-.05c0-3.394-.151-7.069.878-9.837 2.013-5.409 7.294-9.154 13.296-9.118 7.296.136 13.777 6.449 13.826 13.993v4.962c.231.104.462.21.691.319 11.492 5.507 19.27 17.701 19.309 30.551v30.174c3.422 0 7.001-.479 10.005.835 5.769 2.524 7.814 11.147 3.316 15.978-1.836 1.97-4.473 3.135-7.192 3.186-8.668.057-17.337.095-26.005.115-.122 1.396-.741 2.959-1.28 4.113-1.949 4.176-6.323 7.046-11.047 7.136-2.637.017-5.283.13-7.685-.75-4.37-1.599-7.585-5.814-8.053-10.499zm23.701.886h-19.52c.892 3.557 4.255 6.291 8.014 6.363 2.113.014 4.212.216 6.163-.471 2.611-.92 4.667-3.196 5.343-5.892zm-9.884-96.999c-5.196.097-9.843 4.592-9.876 10.005v6.274c-.11 1.665-.674 1.58-2.293 2.294-10.375 4.65-17.596 15.427-17.707 27.07v32.356s-.418 1.896-2 2c-5.446 0-11.836-.801-13.611 3.868-1.343 3.534 1.495 8.004 5.455 8.13 26.766.506 53.546.507 80.312 0 4.518-.143 7.677-6.477 4.187-10.137-1.117-1.173-2.708-1.85-4.35-1.861h-7.993c-1.082-.071-1.905-.545-2-2 0-10.786.032-21.571-.001-32.357-.106-11.714-7.575-22.993-18.748-27.509 0 0-1.16-.475-1.251-1.854 0-4.574.395-9.453-2.343-12.712-1.923-2.288-4.592-3.586-7.781-3.567z" fill-rule="nonzero" fill="#a7adb0" class="fill-000000" stroke-width="6px" stroke="#a7adb0"></path></svg>