<svg viewBox="0 0 128 128" xml:space="preserve" xmlns="http://www.w3.org/2000/svg"><path d="M91.046 111.818a5.85 5.85 0 0 1-3.341-1.049C87.188 110.402 68.92 97.098 64 93.515L40.336 110.74c-1.039.717-2.194 1.078-3.382 1.078-3.228 0-5.854-2.636-5.854-5.877 0-.639.114-1.305.339-1.98l.038-.105c.253-.71 6.214-18.996 9.008-27.575-7.342-5.364-23.014-16.808-23.653-17.25a5.9 5.9 0 0 1-2.524-4.834c0-3.305 2.608-5.994 5.815-5.994h29.346l8.933-27.59c.687-2.446 2.998-4.207 5.599-4.207 2.604 0 4.915 1.762 5.622 4.283l8.947 27.514h29.35c3.185 0 5.775 2.679 5.775 5.974 0 1.932-.936 3.74-2.502 4.838-.671.463-16.339 11.903-23.678 17.265 2.797 8.586 8.764 26.887 9.025 27.621.246.727.361 1.396.361 2.041 0 3.241-2.627 5.876-5.855 5.876zM64 88.566l1.178.856c8.396 6.116 24.391 17.764 24.824 18.072.299.206.669.323 1.044.323a1.868 1.868 0 0 0 1.855-1.877c0-.209-.045-.447-.133-.709-.148-.371-6.698-20.473-9.506-29.094l-.449-1.378 1.171-.854c2.486-1.818 24.313-17.764 24.944-18.188.468-.329.766-.913.766-1.541 0-1.069-.813-1.974-1.775-1.974H75.663l-9.869-30.355c-.252-.894-.964-1.441-1.794-1.441-.829 0-1.541.549-1.771 1.366l-9.85 30.431H20.123c-.984 0-1.815.914-1.815 1.994 0 .617.298 1.193.797 1.543.6.403 22.425 16.349 24.911 18.167l1.171.854-.449 1.379c-2.716 8.344-8.937 27.436-9.504 29.086h.001a2.31 2.31 0 0 0-.134.717c0 1.035.831 1.877 1.854 1.877.38 0 .74-.114 1.071-.342L64 88.566z" fill="#a7adb0" class="fill-000000"></path></svg>